<?xml version="1.0" encoding="UTF-8"?>
<svg xmlns="http://www.w3.org/2000/svg" viewBox="0 0 1200 630" width="1200" height="630" role="img" aria-label="MadsJeezDesign — Design · Code · Elevate">
  <defs>
    <radialGradient id="bg" cx="50%" cy="40%" r="80%">
      <stop offset="0%" stop-color="#0e1a2e" />
      <stop offset="100%" stop-color="#020617" />
    </radialGradient>
    <linearGradient id="ring" x1="0" y1="0" x2="1" y2="1">
      <stop offset="0%" stop-color="#67e8f9" />
      <stop offset="55%" stop-color="#22d3ee" />
      <stop offset="100%" stop-color="#0891b2" />
    </linearGradient>
    <linearGradient id="letter" x1="0" y1="0" x2="0" y2="1">
      <stop offset="0%" stop-color="#67e8f9" />
      <stop offset="100%" stop-color="#0891b2" />
    </linearGradient>
    <radialGradient id="glow" cx="50%" cy="42%" r="40%">
      <stop offset="0%" stop-color="#22d3ee" stop-opacity="0.22" />
      <stop offset="100%" stop-color="#22d3ee" stop-opacity="0" />
    </radialGradient>
  </defs>

  <rect width="1200" height="630" fill="url(#bg)" />
  <rect width="1200" height="630" fill="url(#glow)" />

  <g transform="translate(140 215)">
    <circle cx="100" cy="100" r="92" fill="none" stroke="#22d3ee" stroke-width="1" opacity="0.4" />
    <circle cx="100" cy="100" r="90" fill="#0e1a2e" stroke="url(#ring)" stroke-width="4" />
    <path
      d="M 50 145 L 50 56 L 75 56 L 100 95 L 125 56 L 150 56 L 150 145 L 128 145 L 128 92 L 103 128 L 97 128 L 72 92 L 72 145 Z"
      fill="url(#letter)"
    />
  </g>

  <g transform="translate(420 270)">
    <text
      x="0"
      y="0"
      font-family="'Space Grotesk', system-ui, sans-serif"
      font-weight="600"
      font-size="78"
      letter-spacing="-2"
      fill="#f8fafc"
    >Mads<tspan fill="#22d3ee">Jeez</tspan>Design</text>
    <text
      x="2"
      y="50"
      font-family="'JetBrains Mono', ui-monospace, monospace"
      font-weight="400"
      font-size="20"
      letter-spacing="6"
      fill="#22d3ee"
    >DESIGN · CODE · ELEVATE</text>
  </g>

  <line x1="140" y1="540" x2="1060" y2="540" stroke="#22d3ee" stroke-opacity="0.15" stroke-width="1" />
  <g transform="translate(140 570)" font-family="'JetBrains Mono', ui-monospace, monospace" font-size="16" letter-spacing="2">
    <text x="0" y="0" fill="#94a3b8">Buenos Aires · 2009—2026</text>
    <text x="920" y="0" fill="#94a3b8" text-anchor="end">madsjeezdesign.com</text>
  </g>
</svg>
